<?xml version="1.0" encoding="UTF-8"?>
<svg width="26px" height="27px" viewBox="0 0 26 27" version="1.1" xmlns="http://www.w3.org/2000/svg" xmlns:xlink="http://www.w3.org/1999/xlink">
    <!-- Generator: Sketch 42 (36781) - http://www.bohemiancoding.com/sketch -->
    <title>logo</title>
    <desc>Created with Sketch.</desc>
    <defs></defs>
    <g id="Symbols" stroke="none" stroke-width="1" fill="none" fill-rule="evenodd">
        <g id="header" transform="translate(-12.000000, -10.000000)" fill="#6EA6C9">
            <path d="M16,27.3606557 L16,9 L21.7142857,9 L21.7142857,18.6489347 C23.013222,18.0541319 24.4662896,17.7213115 26,17.7213115 C31.5228475,17.7213115 36,22.0369929 36,27.3606557 C36,32.6843186 31.5228475,37 26,37 C20.4771525,37 16,32.6843186 16,27.3606557 L16,27.3606557 Z M27.2793385,28.1314419 C27.3790192,27.9253962 27.4346862,27.6955846 27.4346862,27.4532403 C27.4346862,26.5659631 26.6884941,25.8466829 25.7680196,25.8466829 C24.847545,25.8466829 24.1013529,26.5659631 24.1013529,27.4532403 C24.1013529,28.3405174 24.847545,29.0597976 25.7680196,29.0597976 C25.9100733,29.0597976 26.0479763,29.0426667 26.1796263,29.0104312 L30.0238827,33.4266065 C30.2816762,33.7227525 30.7306387,33.7589362 31.0328349,33.5145088 C31.3371379,33.2683772 31.3732646,32.8344309 31.1182319,32.5414564 L27.2793385,28.1314419 L27.2793385,28.1314419 Z M32.1711551,32.2078665 C32.1996691,32.1695046 32.2278508,32.1308975 32.2556962,32.0920493 C33.2108187,30.7595201 33.7702293,29.1432511 33.7702293,27.4010369 C33.7702293,25.6614091 33.2124785,24.0473528 32.2599475,22.7159611 C32.0430963,22.4128592 31.8057844,22.1244074 31.5499347,21.852459 L30.1768802,22.8552559 C30.365631,23.0472513 30.5425555,23.2501583 30.7065296,23.462893 C31.5543395,24.5628146 32.0559436,25.9254604 32.0559436,27.4010369 C32.0559436,28.6923393 31.6718,29.8971561 31.0076594,30.9150968 L32.1711551,32.2078665 Z M29.7117559,29.4756426 C30.0080419,28.8427523 30.1729417,28.140432 30.1729417,27.4009862 C30.1729417,26.1644899 29.7118438,25.0318046 28.9463516,24.1539823 C28.9088005,24.1109208 28.8705169,24.0684727 28.8315193,24.0266556 L27.4285714,25.0445952 C28.0461192,25.6517687 28.4269099,26.483512 28.4269099,27.4009862 C28.4269099,27.6021592 28.4086021,27.7992103 28.3735047,27.990676 L29.7117559,29.4756426 Z" id="logo" transform="translate(26.000000, 23.000000) rotate(-15.000000) translate(-26.000000, -23.000000) "></path>
        </g>
    </g>
</svg>