<?xml version="1.0" encoding="UTF-8"?>
<svg width="32px" height="32px" viewBox="0 0 32 32" version="1.1" xmlns="http://www.w3.org/2000/svg" xmlns:xlink="http://www.w3.org/1999/xlink">
    <!-- Generator: Sketch 42 (36781) - http://www.bohemiancoding.com/sketch -->
    <title>Twitter Icon</title>
    <desc>Created with Sketch.</desc>
    <defs></defs>
    <g id="Page-1" stroke="none" stroke-width="1" fill="none" fill-rule="evenodd">
        <g id="login" transform="translate(-466.000000, -359.000000)">
            <g id="rancor" transform="translate(212.000000, 100.000000)">
                <g id="Twitter-Icon" transform="translate(255.000000, 260.000000)">
                    <path d="M21.3634156,8.33985185 C20.6823868,7.51503704 19.709321,7 18.6314815,7 C16.5653292,7 14.8897325,8.89812346 14.8897325,11.2403457 C14.8897325,11.5719506 14.9221811,11.8947407 14.9862963,12.2057778 C11.8747531,12.028642 9.11740741,10.3412346 7.27096708,7.77612346 C6.94882716,8.40155556 6.7650823,9.13108642 6.7650823,9.90846914 C6.7650823,11.3780247 7.42617284,12.674642 8.43012346,13.4348148 C7.8167284,13.4129877 7.23890947,13.222 6.73380658,12.9046667 L6.73380658,12.9588148 C6.73380658,15.0114074 8.02471193,16.7248395 9.73744856,17.1147901 C9.42273663,17.2113333 9.09238683,17.2642222 8.75030864,17.2642222 C8.5094856,17.2642222 8.27530864,17.2377778 8.04621399,17.1878272 C8.52355967,18.8714568 9.90477366,20.0971358 11.5424486,20.1319753 C10.2613169,21.2686667 8.6482716,21.9461481 6.8937037,21.9461481 C6.59032922,21.9461481 6.29360082,21.926 6,21.8878025 C7.65722222,23.0895556 9.62602881,23.7901235 11.7383128,23.7901235 C18.6228807,23.7901235 22.3869136,17.332642 22.3869136,11.731037 C22.3869136,11.5471852 22.3845679,11.3637531 22.3775309,11.182 C23.1082099,10.5838519 23.7434979,9.83879012 24.2450823,8.98837037 C23.5742181,9.3254321 22.8529218,9.55335802 22.0956584,9.65535802 C22.8685597,9.13108642 23.4608436,8.30039506 23.7411523,7.30935802 C23.0179012,7.7962716 22.2164609,8.1488642 21.3634156,8.33985185 Z" id="Path" fill="#009EF2"></path>
                    <circle id="Oval" stroke="#009EF2" cx="15" cy="15" r="15"></circle>
                </g>
            </g>
        </g>
    </g>
</svg>